<svg width="28" height="28" viewBox="0 0 28 28" fill="none" xmlns="http://www.w3.org/2000/svg">
  <path
    opacity="0.3"
    fill="currentColor"
    d="M23 23H20.8506C20.7108 22.0068 20.4516 21.0264 20 20.1543V20H23V23ZM8.08105 20C8.05295 20.0508 8.02673 20.1027 8 20.1543V20H8.08105ZM8 20H5V17H8V20ZM20 20H19.9189C19.3164 18.9101 18.3952 18.0053 17 17.4834V17H20V20ZM14 17C12.8136 17 11.8241 17.1751 11 17.4834V17H14ZM10.126 14C10.2853 14.6188 10.59 15.1787 11 15.6436V17H8V14H10.126ZM17 17H14C15.1953 16.9999 16.2671 16.4747 17 15.6436V17ZM23 17H20V14H23V17ZM8 14H5V11H8V14ZM20 14H17.874C17.9563 13.6804 18 13.3453 18 13C18 12.3547 17.9543 11.6605 17.8066 11H20V14ZM11 9.21973C10.5869 9.72486 10.3397 10.3455 10.1934 11H8V8H11V9.21973ZM23 11H20V8H23V11ZM17 9.2207C16.4475 8.54464 15.6032 8.07414 14.3193 8.00781L14 8H17V9.2207ZM8 8H5V5H8V8ZM14 8H11V5H14V8ZM20 8H17V5H20V8Z"
  />
  <path
    fill="currentColor"
    d="M17.0859 12.2734C17.0859 10.6166 15.7428 9.27344 14.0859 9.27344C12.4291 9.27344 11.0859 10.6166 11.0859 12.2734C11.086 13.9302 12.4291 15.2734 14.0859 15.2734C15.7427 15.2734 17.0859 13.9302 17.0859 12.2734ZM14.1211 18.5488C12.5746 18.5488 11.0259 19.4753 9.81055 20.7529C9.21478 21.3792 8.73557 22.0543 8.41016 22.6641C8.34734 22.7818 8.29348 22.8943 8.24512 23H19.5742C19.5273 22.8799 19.474 22.752 19.4111 22.6182C19.1244 22.0079 18.6991 21.338 18.1631 20.7188C17.0724 19.4587 15.6504 18.5489 14.1211 18.5488ZM19.0859 12.2734C19.0859 14.3352 17.8374 16.1045 16.0557 16.8691C17.5271 17.3598 18.7611 18.3525 19.6758 19.4092C20.3309 20.166 20.8557 20.9907 21.2207 21.7676C21.395 22.1385 21.5418 22.519 21.6465 22.8906C22.4334 22.6216 23 21.878 23 21V7C23 5.89543 22.1046 5 21 5H7C5.89543 5 5 5.89543 5 7V21C5 21.8073 5.47934 22.5005 6.16797 22.8164C6.29001 22.4492 6.45549 22.0788 6.64551 21.7227C7.0603 20.9454 7.64804 20.1249 8.36133 19.375C9.34626 18.3396 10.6446 17.3669 12.1328 16.8779C10.3419 16.1173 9.08599 14.3419 9.08594 12.2734C9.08594 9.51201 11.3245 7.27344 14.0859 7.27344C16.8474 7.27344 19.0859 9.51201 19.0859 12.2734ZM25 21C25 23.2091 23.2091 25 21 25H6.95117C6.93477 25 6.91855 24.9979 6.90234 24.9971C4.73834 24.9452 3 23.1765 3 21V7C3 4.79086 4.79086 3 7 3H21C23.2091 3 25 4.79086 25 7V21Z"
  />
</svg>
