<svg width="16" height="16" viewBox="0 0 16 16" fill="none" xmlns="http://www.w3.org/2000/svg">
<path d="M8 1.14258C11.7871 1.14258 14.8574 4.2129 14.8574 8C14.8574 11.7871 11.7871 14.8574 8 14.8574C4.2129 14.8574 1.14258 11.7871 1.14258 8C1.14258 4.2129 4.2129 1.14258 8 1.14258ZM8 2.28613C4.84409 2.28613 2.28613 4.84409 2.28613 8C2.28613 11.1559 4.84409 13.7139 8 13.7139C11.1559 13.7139 13.7139 11.1559 13.7139 8C13.7139 4.84409 11.1559 2.28613 8 2.28613ZM7.38477 4.39746C7.61269 3.86754 8.38731 3.86754 8.61523 4.39746L9.38574 6.19043L11.3857 6.3457C11.977 6.39164 12.2164 7.10682 11.7656 7.48047L10.2432 8.74316L10.708 10.6309C10.8455 11.1895 10.2189 11.6311 9.71289 11.332L8 10.3193L6.28711 11.332C5.78107 11.6311 5.15453 11.1895 5.29199 10.6309L5.75684 8.74316L4.23438 7.48047C3.78359 7.10682 4.023 6.39164 4.61426 6.3457L6.61426 6.19043L7.38477 4.39746Z" fill="currentColor"/>
</svg>
